<mxfile host="app.diagrams.net" modified="2023-08-11T04:23:54.923Z" agent="Mozilla/5.0 (Windows NT 10.0; Win64; x64) AppleWebKit/537.36 (KHTML, like Gecko) Chrome/115.0.0.0 Safari/537.36" version="21.6.3" etag="zM_2q0eBHL3X-HfIkiJN" type="github">
  <diagram name="Page-1" id="WRdhbBN_rGMiQ0-goSM_">
    <mxGraphModel>
      <root>
        <mxCell id="0" />
        <mxCell id="1" parent="0" />
      </root>
    </mxGraphModel>
  </diagram>
</mxfile>
